<?xml version="1.0" encoding="UTF-8" standalone="no"?>
<!-- Generator: Adobe Illustrator 25.0.0, SVG Export Plug-In . SVG Version: 6.00 Build 0)  -->

<svg
   version="1.1"
   id="Vrstva_1"
   x="0px"
   y="0px"
   viewBox="0 0 1726.4547 263.37079"
   xml:space="preserve"
   sodipodi:docname="qvex-flasher-logo-white.svg"
   inkscape:version="1.2.2 (732a01da63, 2022-12-09)"
   width="1726.4547"
   height="263.37079"
   xmlns:inkscape="http://www.inkscape.org/namespaces/inkscape"
   xmlns:sodipodi="http://sodipodi.sourceforge.net/DTD/sodipodi-0.dtd"
   xmlns="http://www.w3.org/2000/svg"
   xmlns:svg="http://www.w3.org/2000/svg"><defs
   id="defs33" /><sodipodi:namedview
   id="namedview31"
   pagecolor="#ffffff"
   bordercolor="#000000"
   borderopacity="0.25"
   inkscape:showpageshadow="2"
   inkscape:pageopacity="0.0"
   inkscape:pagecheckerboard="0"
   inkscape:deskcolor="#d1d1d1"
   showgrid="false"
   inkscape:zoom="0.58876527"
   inkscape:cx="692.97566"
   inkscape:cy="76.431139"
   inkscape:window-width="2560"
   inkscape:window-height="1369"
   inkscape:window-x="-8"
   inkscape:window-y="-8"
   inkscape:window-maximized="1"
   inkscape:current-layer="text400" />
<style
   type="text/css"
   id="style2">
	.st0{fill:#3D9BE9;}
	.st1{fill:#FFFFFF;}
	.st2{fill:none;}
</style>
<path
   id="XMLID_23_"
   class="st0"
   d="m 158.9,217.29087 c 2.2,0 4.2,-0.9 5.9,-2.6 1.6,-1.6 2.4,-3.6 2.4,-5.9 0,-2.2 -0.8,-4.1 -2.4,-5.7 l -11.2,-11.2 -12.1,-11.9 -24.4,-24.4 c -1.6,-1.6 -3.6,-2.4 -5.9,-2.4 -2.2,0 -4.1,0.8 -5.7,2.4 -1.8,1.8 -2.6,3.7 -2.6,5.9 0,2.2 0.9,4.2 2.6,5.9 l 23.5,23.5 12.3,12.1 11.7,11.7 c 1.7,1.7 3.7,2.6 5.9,2.6 z"
   style="fill:#3d9be9;fill-opacity:1" />
<path
   id="XMLID_24_"
   class="st1"
   d="m 128.2,198.09087 c -2.5,-2.5 -6.3,-3.1 -9.5,-1.6 -9.3,4.4 -19.6,6.6 -31,6.6 -13.5,0 -25.6,-3.2 -36.4,-9.5 -10.8,-6.3 -19.3,-14.9 -25.4,-25.9 -6.2,-10.9 -9.2,-23.09999 -9.2,-36.59999 0,-13.3 3.1,-25.5 9.2,-36.400005 6.2,-10.8 14.7,-19.5 25.5,-25.8 10.8,-6.3 22.9,-9.5 36.4,-9.5 13.3,0 25.4,3.2 36.2,9.5 10.8,6.3 19.3,14.9 25.4,25.8 6.2,10.900005 9.2,23.100005 9.2,36.400005 0,9.2 -1.5,17.99999 -4.6,26.39999 -1.5,4 -3.2,7.7 -5.3,11.3 -1.9,3.3 -1.4,7.4 1.3,10 l 0.4,0.4 c 3.9,3.8 10.3,2.9 13,-1.7 2.4,-4.1 4.5,-8.5 6.2,-13.1 3.9,-10.3 5.8,-21.49999 5.8,-33.29999 0,-16.7 -3.8,-31.800005 -11.3,-45.100005 -7.6,-13.3 -18,-23.8 -31.5,-31.5 -13.2,-7.5 -28.2,-11.3 -44.8,-11.3 -16.7,0 -31.8,3.8 -45.1,11.4 -13.3,7.6 -23.8,18.1 -31.3,31.5 -7.6,13.3 -11.4,28.400005 -11.4,45.100005 0,16.69999 3.8,31.79999 11.3,45.19999 7.6,13.4 18,23.9 31.3,31.6 13.3,7.6 28.4,11.4 45.1,11.4 10,0 19.5,-1.4 28.5,-4.3 3.3,-1 6.5,-2.3 9.6,-3.6 5.3,-2.4 6.5,-9.3 2.4,-13.4 z" />
<g
   id="XMLID_18_"
   transform="translate(0,43.190875)">
	<path
   id="XMLID_2_"
   class="st1"
   d="m 261,167.9 c 4,-1.6 5.9,-6.2 4.3,-10.2 l -7.7,-18.4 v 0 L 203.6,10 c -1.5,-3.7 -4.1,-5.5 -7.9,-5.5 -2.5,0 -4.5,0.7 -6,2.1 -1.5,1.4 -2.3,3.3 -2.3,5.6 0,1.6 0.4,3.5 1.3,5.7 L 251,163.8 c 1.5,3.8 6,5.6 10,4.1 z" />
	<path
   id="XMLID_1_"
   class="st1"
   d="m 328.5,4.4 c -2.2,0 -4,0.4 -5.3,1.3 -1.3,0.9 -2.4,2.4 -3.3,4.6 l -49.2,117.8 c -1.5,3.7 0,8 3.5,9.9 v 0 c 4,2.2 9.1,0.4 10.9,-3.8 l 50,-117.3 c 0.7,-1.8 1.1,-3.4 1.1,-4.8 0,-2.2 -0.7,-4 -2.1,-5.5 -1.4,-1.5 -3.3,-2.2 -5.6,-2.2 z" />
</g>
<path
   id="XMLID_12_"
   class="st1"
   d="m 638.2,211.09087 c 0,2.3 -0.7,4.3 -2.2,5.9 -1.5,1.6 -3.4,2.4 -5.9,2.4 -2.9,0 -5.1,-1 -6.6,-3.1 l -52.6,-72.79999 -53.7,73.29999 c -1.5,1.8 -3.5,2.6 -6.2,2.6 -2.5,0 -4.5,-0.8 -5.9,-2.3 -1.5,-1.5 -2.2,-3.4 -2.2,-5.6 0,-2.2 0.7,-4.2 2,-5.9 l 54.3,-73.89999 -50.8,-70.600005 c -1.2,-1.9 -1.8,-3.7 -1.8,-5.3 0,-2.2 0.7,-4.1 2.2,-5.7 1.5,-1.6 3.4,-2.4 5.7,-2.4 2.9,0 5.1,1 6.6,3.1 L 571,119.89088 621.6,50.790875 c 1.6,-2.1 3.8,-3.1 6.6,-3.1 2.3,0 4.3,0.8 5.7,2.5 1.5,1.7 2.2,3.6 2.2,5.8 0,1.9 -0.5,3.6 -1.5,5.1 l -51.9,70.400005 53.5,74.09999 c 1.4,1.7 2,3.6 2,5.5 z" />
<path
   id="XMLID_7_"
   class="st2"
   d="M 335.8,235.09087" />
<path
   id="XMLID_8_"
   class="st2"
   d="M 406.6,186.69087" />
<g
   id="XMLID_5_"
   transform="translate(0,43.190875)">
	<path
   id="XMLID_6_"
   class="st1"
   d="m 474.1,159.2 h -95 v -138 h 95 c 2.5,0 4.5,-0.9 6.2,-2.5 1.6,-1.5 2.4,-3.6 2.4,-5.9 0,-2.3 -0.8,-4.5 -2.4,-6.1 -1.6,-1.6 -3.7,-2.5 -6.2,-2.5 H 370.9 c -2.3,0 -4.5,0.9 -6.2,2.5 -1.7,1.6 -2.7,3.8 -2.7,6.2 v 154.7 c 0,2.3 1,4.4 2.7,6.1 1.7,1.7 3.8,2.5 6.2,2.5 h 103.2 c 2.5,0 4.5,-0.8 6.2,-2.4 1.6,-1.6 2.4,-3.6 2.4,-5.9 0,-2.3 -0.8,-4.5 -2.4,-6.1 -1.7,-1.6 -3.7,-2.6 -6.2,-2.6 z" />
	<path
   id="XMLID_9_"
   class="st1"
   d="m 454.4,95.9 c 1.7,-1.6 2.5,-3.6 2.5,-5.9 0,-2.3 -0.8,-4.5 -2.4,-6.1 -1.6,-1.6 -3.7,-2.6 -6.2,-2.6 H 389 v 17 h 59.3 c 2.4,-0.1 4.4,-0.8 6.1,-2.4 z" />
</g>
<g
   id="XMLID_3_"
   transform="translate(0,43.190875)">
</g>
<g
   id="XMLID_4_"
   transform="translate(0,43.190875)">
</g>
<g
   id="XMLID_10_"
   transform="translate(0,43.190875)">
</g>
<g
   id="XMLID_11_"
   transform="translate(0,43.190875)">
</g>
<g
   id="XMLID_14_"
   transform="translate(0,43.190875)">
</g>
<g
   id="XMLID_15_"
   transform="translate(0,43.190875)">
</g>
<g
   id="XMLID_17_"
   transform="translate(0,43.190875)">
</g>
<g
   id="XMLID_19_"
   transform="translate(0,43.190875)">
</g>
<g
   id="XMLID_26_"
   transform="translate(0,43.190875)">
</g>
<g
   id="XMLID_30_"
   transform="translate(0,43.190875)">
</g>
<g
   id="XMLID_31_"
   transform="translate(0,43.190875)">
</g>
<g
   id="XMLID_32_"
   transform="translate(0,43.190875)">
</g>
<g
   id="XMLID_33_"
   transform="translate(0,43.190875)">
</g>
<g
   id="XMLID_34_"
   transform="translate(0,43.190875)">
</g>
<g
   id="XMLID_35_"
   transform="translate(0,43.190875)">
</g>
<g
   aria-label="Flasher"
   id="text400"
   style="font-size:376.244px;fill:#3d9be9;stroke-width:0.470305"><path
     d="M 958.16357,5.6436568 968.6984,7.5248767 954.77737,51.921667 q -1.88122,-2.257464 -4.51492,-3.76244 -2.25747,-1.504976 -4.51493,-3.009951 -17.30723,-9.782344 -39.50562,-16.178492 l 0.75249,13.16854 q -5.26742,-4.138684 -10.53483,-7.52488 -4.89118,-3.76244 -10.15859,-6.772392 l -34.99069,88.793578 -5.26742,-8.27736 -7.52488,14.29727 0.37624,0.37624 q 8.65362,-0.37624 16.93098,-0.37624 8.65362,-0.37625 16.55474,0.37624 l 1.12873,-0.37624 q 11.66357,0.37624 21.44591,2.6337 l -9.4061,6.7724 q 7.52488,1.12873 14.67352,2.25746 7.14863,1.12873 13.54478,4.13868 -0.75249,0.75249 -1.50498,0.75249 -0.75249,-0.37624 -1.50497,-0.37624 -14.67352,0.75249 -30.09952,4.89117 -15.04976,3.76244 -30.09952,9.02986 l 7.52488,-8.27737 q -13.92103,3.00995 -27.08957,8.65361 h -0.75249 q 1.12874,-6.39615 3.00996,-13.16854 1.88122,-6.77239 3.38619,-13.16854 l -31.98074,64.71397 -6.39615,-7.90113 -40.2581,79.76373 28.59454,-129.05169 8.27737,11.28732 24.45586,-95.565973 8.65361,10.534832 12.03981,-42.891815 24.45586,-1.128732 -0.75249,-0.376244 q -6.77239,-3.009951 -14.29727,-5.643659 -7.14864,-2.6337083 -14.29727,-5.2674162 0,0 0,-0.752488 13.92102,0 26.71332,1.128732 13.16854,1.1287319 25.96083,2.2574639 l -4.89117,-7.52487976 q 0.75249,-0.75248798 1.50498,0 0.75249,0.37624398 1.88122,-0.3762439917579 Q 904.73692,0.37624094 922.79663,1.5049729 q 18.43596,1.128732 35.36694,4.1386839 z"
     style="font-style:italic;font-family:'In A Flash';-inkscape-font-specification:'In A Flash Italic'"
     id="path6426" /><path
     d="M 1052.2249,-3.0517579e-6 1007.0756,111.74446 l -6.3961,-8.27737 -39.12942,90.6748 -5.26742,-8.27736 -35.36693,77.50626 26.71332,-127.54671 7.90113,8.27736 23.70337,-92.556017 7.90112,8.653612 15.42603,-59.44655008 z"
     style="font-style:italic;font-family:'In A Flash';-inkscape-font-specification:'In A Flash Italic'"
     id="path6428" /><path
     d="m 1196.3264,113.62568 -48.9117,111.74447 -8.2773,-7.52488 -21.8222,45.14927 2.6337,-20.31717 -0.3762,0.75249 q -16.931,13.16854 -36.1195,17.30722 -19.1884,3.76244 -34.9906,0.37624 -19.941,-6.0199 -29.3471,-21.4459 -2.6337,-4.13869 -4.5149,-8.65361 -1.505,-4.89118 -3.01,-9.78235 l 10.1586,0.75249 0.3763,-0.75249 q -3.3862,-6.39615 -3.7625,-13.54478 -0.3762,-7.52488 0.7525,-15.04976 1.8812,-11.28732 7.9011,-22.1984 6.0199,-11.28732 14.6736,-21.06966 9.0298,-10.15859 19.9409,-18.43596 10.9111,-8.65361 22.5746,-14.67351 l 8.2774,-4.13868 -8.2774,14.29727 q 18.0597,-10.91108 36.1195,-13.16854 18.4359,-2.63371 33.1094,0.75249 l 0.7525,-2.63371 z m -54.1791,42.89182 q -3.3862,-2.25747 -6.7724,-3.3862 -3.3862,-1.50498 -7.9011,-1.88122 -5.6437,-0.37624 -11.6636,0.37624 -5.6436,0.75249 -12.0398,3.3862 -10.9111,4.13868 -21.4459,12.03981 -10.1586,7.52488 -14.2973,18.05971 l -4.8911,-8.27737 q -7.9012,16.93098 -9.0299,32.73323 -0.7525,15.426 9.4061,24.8321 1.8812,1.50498 3.01,1.88122 1.5049,0.37625 2.2574,1.12873 l -1.5049,0.75249 -12.7923,1.50498 q 6.7723,7.52488 18.0597,10.15859 11.6635,2.25746 24.8321,0.37624 6.0199,-0.75249 11.6635,-2.63371 5.6437,-2.25746 11.2874,-6.39615 2.6337,-19.18844 4.5149,-38.00064 1.8812,-18.8122 4.8912,-38.00064 l 7.9011,8.27737 z"
     style="font-style:italic;font-family:'In A Flash';-inkscape-font-specification:'In A Flash Italic'"
     id="path6430" /><path
     d="m 1231.6933,121.90305 q 6.0199,-3.00995 12.0398,-5.26742 6.3962,-2.6337 12.7923,-3.76244 6.7724,-1.12873 13.5448,-0.37624 7.1486,0.37624 13.5448,3.3862 l -16.931,36.87191 q -1.1287,0 -2.2575,-0.75249 -1.1287,-0.75249 -2.2574,-0.75249 -3.3862,-2.63371 -8.6536,-1.50498 -4.8912,1.12874 -9.4061,4.51493 -6.7724,5.64366 -7.9012,12.41605 -1.1287,4.13869 0,7.14864 1.1288,2.63371 3.01,4.89117 1.8812,2.25747 4.1387,4.51493 2.6337,1.88122 4.1387,4.13868 3.0099,5.26742 5.2674,10.15859 2.2574,4.51493 2.6337,10.53483 l -8.2774,-1.12873 q 0,1.12873 0,2.63371 0.3763,1.12873 0,3.00995 0.7525,9.4061 -5.2674,20.31718 -5.6437,10.53483 -14.2973,18.05971 -8.2773,5.64366 -17.6834,9.4061 -9.0299,3.76244 -18.436,2.6337 -11.6636,-1.12873 -20.3172,-8.27736 -8.2773,-7.52488 -8.6536,-19.18845 h 0.3763 q 3.3862,7.52488 10.5348,12.41606 7.5249,4.89117 19.1884,3.00995 4.8912,-1.88122 9.0299,-4.89117 4.5149,-3.00996 6.7724,-7.90113 5.6437,-10.53483 2.6337,-18.8122 -2.6337,-8.65361 -7.5249,-14.67351 -3.3862,-4.51493 -8.6536,-7.90113 -4.8912,-3.76244 -6.7724,-9.78234 l 10.1586,0.37624 q -2.6337,-5.64366 -3.0099,-12.41605 0,-6.77239 1.5049,-13.92103 1.8812,-7.52488 5.6437,-14.67351 3.7624,-7.52488 9.4061,-13.92103 5.2674,-6.39615 11.2873,-12.03981 6.3962,-6.0199 13.921,-10.53483 z"
     style="font-style:italic;font-family:'In A Flash';-inkscape-font-specification:'In A Flash Italic'"
     id="path6432" /><path
     d="m 1355.1016,101.96212 -7.9011,-7.148638 -19.1884,47.406738 21.0696,-36.11942 q 15.8023,-1.88122 27.0896,2.63371 11.6636,4.51493 19.1884,14.29727 l 2.2575,-13.16854 q 6.7724,2.63371 11.6636,7.90113 4.8911,4.89117 7.5248,11.28731 2.6337,6.39615 3.01,13.92103 0.7525,7.14864 -1.1287,14.67352 -1.505,9.02985 -5.6437,18.43595 -3.7624,9.02986 -9.7823,17.30723 l 10.5348,-6.01991 v 0.37625 q -6.7724,12.0398 -16.5548,24.07961 -9.406,11.66357 -20.6934,21.82215 -11.2873,10.15859 -24.4558,18.05971 -12.7923,7.52488 -26.7134,11.66357 9.0299,-5.26742 18.0598,-13.16854 9.4061,-7.90112 15.8022,-15.80225 2.6337,-3.00995 4.8912,-6.0199 2.6337,-3.00995 4.8912,-6.01991 l -11.2874,2.63371 q 10.5349,-11.28732 17.6835,-23.70337 7.5249,-12.41605 8.6536,-25.96083 0.7525,-3.00996 0,-4.13869 l -8.2774,10.91108 q 1.1288,-13.54479 -7.5248,-23.32713 -8.2774,-10.15859 -21.8222,-11.66356 -4.8912,-0.37625 -10.5348,0 -5.6437,0.37624 -10.9111,2.25746 l -17.6835,44.39679 -6.3961,-6.77239 -35.7432,76.37753 26.7133,-126.79423 7.5249,6.7724 22.1984,-91.051049 8.2774,7.148636 13.1685,-56.0603542 48.5355,-3.3861958517579 z"
     style="font-style:italic;font-family:'In A Flash';-inkscape-font-specification:'In A Flash Italic'"
     id="path6434" /><path
     d="m 1514.2531,117.01188 q 4.1387,-1.12873 7.5249,-1.88122 3.3862,-0.75249 6.3962,-1.12873 l 1.5049,-0.37625 q 3.7625,-0.37624 7.5249,-0.75249 4.1387,-0.37624 8.2774,0.37625 3.0099,-0.75249 6.3961,0 3.3862,0.37624 6.7724,0.75249 16.1785,3.76244 25.9609,16.17849 10.1585,12.0398 15.426,27.08956 l -18.8122,3.76244 q -5.6437,1.50498 -10.9111,3.00996 -5.2674,1.50497 -10.5349,4.13868 l 12.0399,3.76244 q -24.8321,6.77239 -49.6643,18.05971 -24.4558,11.28732 -49.2879,25.20835 8.6536,-9.78235 21.4459,-18.8122 12.7923,-9.02986 23.7034,-16.55474 l -9.7824,-2.25746 q 7.9011,-5.26742 15.426,-9.78234 7.5249,-4.51493 15.8023,-9.02986 -7.9012,-4.89117 -20.3172,-3.3862 -12.4161,1.50498 -23.3271,7.52488 -5.6437,4.13869 -10.5349,8.27737 -4.8911,3.76244 -9.0298,9.02986 l -1.1288,1.12873 1.1288,-13.54478 q -12.4161,13.54478 -16.5548,30.09951 -4.1386,16.1785 2.2575,27.84206 4.1387,9.78234 15.426,14.29727 l -12.416,4.89117 q 16.1785,6.39615 37.6244,5.26742 21.8221,-1.12873 42.5155,-10.91108 l 5.2674,-2.6337 q -10.5348,9.02985 -22.9508,15.04975 -12.4161,6.01991 -25.2084,9.02986 -12.416,2.63371 -24.8321,2.63371 -12.416,-0.37625 -22.5746,-3.76244 -12.7923,-4.13869 -22.1984,-13.54478 -9.4061,-9.78235 -12.4161,-22.95089 l 9.0299,1.88122 q -2.2575,-7.90112 -1.505,-16.93098 1.1287,-9.4061 4.5149,-18.8122 3.3862,-9.4061 9.0299,-18.8122 5.6437,-9.4061 12.416,-17.68346 10.9111,-12.41606 25.5846,-23.70338 14.6735,-11.66356 28.9708,-16.55473 3.3862,-1.12873 6.0199,-1.88122 2.6337,-0.75249 6.3962,-1.12873 z"
     style="font-style:italic;font-family:'In A Flash';-inkscape-font-specification:'In A Flash Italic'"
     id="path6436" /><path
     d="m 1694.0978,120.39807 q 8.2773,-1.12873 16.5547,-1.50497 8.2774,-0.75249 15.8022,0 -11.6635,4.13868 -24.0796,8.27736 -12.0398,3.76244 -24.0796,10.53484 -4.5149,1.88122 -8.2774,4.13868 -3.7624,2.25746 -7.9011,4.89117 l 6.7724,-11.28732 h -1.505 q -7.1486,3.00995 -13.5447,7.14864 -6.02,4.13868 -13.5448,8.27737 l -1.8813,-13.92103 -0.3762,1.12873 -30.4758,73.36758 -7.9011,-7.90113 -28.5945,59.8228 13.1685,-109.11076 8.6536,7.90113 9.7824,-47.0305 46.6542,-3.00995 -4.8911,10.91107 q 14.2972,-5.26741 28.9707,-8.65361 14.6736,-3.76244 28.5946,-4.51493 z"
     style="font-style:italic;font-family:'In A Flash';-inkscape-font-specification:'In A Flash Italic'"
     id="path6438" /></g></svg>
